<svg width="40" height="38" viewBox="0 0 40 38" fill="none" xmlns="http://www.w3.org/2000/svg">
<path d="M25.8026 0.000328259L24.9275 0.348608L29.6052 12.0806L10.3908 12.0803L15.0684 0.34828L14.1933 0L9.37906 12.0799H0V20.0799H2.53187L2.32474 20.1318L6.69192 37.821H33.3081L37.6753 20.1318L37.4681 20.0799L40 20.0802V12.0803L30.6209 12.0799L25.8026 0.000328259ZM32.5697 36.8762H7.43081L3.2849 20.0761H36.7204L32.5697 36.8762ZM39.0594 19.1391H0.941436V13.0213H39.0594V19.1391Z" fill="#1452A3"/>
<path fill-rule="evenodd" clip-rule="evenodd" d="M14.8234 24.0945H13.8823V33.624H14.8234V24.0945ZM19.5294 24.0945H20.4705V33.624H19.5294V24.0945ZM25.1766 24.0945H26.1177V33.624H25.1766V24.0945Z" fill="#128FFF"/>
</svg>
