<svg width="41" height="58" viewBox="0 0 41 58" fill="none" xmlns="http://www.w3.org/2000/svg">
<path d="M39.884 30.6447C39.4167 28.9979 38.0146 23.9683 29.0794 11.8061L20.4445 0C18.6339 2.46432 17.6063 5.4162 17.4952 8.47214C17.3841 11.5281 18.1946 14.5468 19.8214 17.1361L20.4445 18.1264C24.6952 23.9349 28.5898 30.0327 29.569 33.5378C30.448 36.6646 30.5037 39.7135 28.6343 42.4397C27.7301 43.7763 26.5089 44.8681 25.0798 45.6176C23.6507 46.3671 22.0582 46.751 20.4445 46.7348C18.8361 46.7508 17.2485 46.3704 15.8221 45.6271C14.3957 44.8838 13.1743 43.8005 12.2659 42.4731C10.4077 39.7135 10.4522 36.6646 11.3312 33.5712C12.2103 30.4778 15.2147 25.5595 18.7754 20.5077L16.8393 17.915C15.8144 16.547 15.0737 14.9876 14.6609 13.3288C14.2481 11.67 14.1716 9.94534 14.4358 8.25649L11.8208 11.8395C2.91897 24.0796 1.48354 29.0312 1.01619 30.6781C-1.33168 39.0347 1.01619 44.9878 3.39744 48.4818C5.29966 51.2464 7.8499 53.5032 10.8254 55.0549C13.8009 56.6067 17.1111 57.4062 20.4668 57.3837C23.821 57.4063 27.1296 56.6068 30.1033 55.0549C33.0771 53.5031 35.6252 51.2463 37.525 48.4818C39.884 44.9545 42.2319 39.0013 39.884 30.6447Z" fill="#128FFF"/>
<path d="M12.0545 31.5348C13.9505 27.6624 16.1846 23.9649 18.7309 20.4854L16.7948 17.8927C15.7699 16.5247 15.0292 14.9653 14.6164 13.3065C14.2036 11.6477 14.1271 9.92304 14.3913 8.23419L11.7763 11.8172C2.87446 24.0573 1.43903 29.0089 0.971682 30.6558C-1.37619 39.0124 0.971682 44.9655 3.35293 48.4595C4.67617 50.4112 6.33362 52.1138 8.24896 53.4891C7.5384 45.9626 8.85225 38.383 12.0545 31.5348V31.5348Z" fill="#00A4FF"/>
<path d="M20.4445 0C18.6339 2.46432 17.6063 5.4162 17.4952 8.47214C17.3841 11.5281 18.1946 14.5468 19.8214 17.1361L20.4445 18.1264C24.6952 23.9349 28.5898 30.0327 29.569 33.5378C30.448 36.6646 30.5037 39.7135 28.6343 42.4397C28.4117 42.7716 28.1663 43.0877 27.8999 43.3855C34.3537 36.7091 33.5971 24.9364 31.2381 14.7437C30.5704 13.7979 29.8694 12.8076 29.1016 11.7727L20.4445 0Z" fill="#1452A3"/>
</svg>
