<svg width="165" height="36" viewBox="0 0 165 36" fill="none" xmlns="http://www.w3.org/2000/svg">
<path d="M7.92621 18.9511H11.3761L9.64241 7.39301L7.92621 18.9511ZM0.711163 29.0382L6.38513 0.00283813H12.8647L18.5211 29.0382H13.0398L11.9715 22.6112H7.36582L6.29757 29.0382H0.711163Z" fill="#1452A3"/>
<path d="M20.3956 29.0382V8.30365H25.8069V16.4819H29.537V8.30365H34.9483V29.0382H29.537V20.247H25.8069V29.0382H20.3956Z" fill="#1452A3"/>
<path d="M40.3603 29.0382V12.0513H36.6477V8.30365H49.5367V12.0513H45.7891V29.0382H40.3603Z" fill="#1452A3"/>
<path d="M57.3654 25.4657C57.6806 25.4657 58.0017 25.3489 58.3286 25.1154C58.6672 24.8819 58.9357 24.6251 59.1342 24.3449V18.6709C58.1652 19.1729 57.3538 19.8326 56.7 20.6498C56.0578 21.4554 55.7368 22.2959 55.7368 23.1716C55.7368 23.8721 55.8827 24.4324 56.1746 24.8527C56.4665 25.2614 56.8634 25.4657 57.3654 25.4657ZM55.3515 29.3884C54.4175 29.3767 53.5828 29.1199 52.8473 28.6179C52.1234 28.1159 51.5805 27.4913 51.2186 26.7441C50.8684 25.9969 50.6933 25.2088 50.6933 24.3799C50.6933 23.8429 50.7458 23.3292 50.8509 22.8388C50.9559 22.3485 51.0844 21.9107 51.2361 21.5254C51.3879 21.1401 51.6039 20.7724 51.8841 20.4221C52.1643 20.0602 52.427 19.7508 52.6721 19.494C52.9173 19.2255 53.2384 18.9569 53.6353 18.6884C54.0439 18.4199 54.3942 18.2039 54.686 18.0405C54.9779 17.8653 55.3574 17.6727 55.8243 17.4626C56.2913 17.2524 56.6591 17.0948 56.9276 16.9897C57.2078 16.873 57.5872 16.7212 58.0659 16.5344C58.5563 16.3476 58.9123 16.2134 59.1342 16.1316V14.2228C59.1342 13.4756 59.0349 12.921 58.8365 12.5591C58.6497 12.1855 58.2819 11.9987 57.7332 11.9987C56.8109 11.9987 56.3264 12.6467 56.2797 13.9426L56.1746 15.3611L51.0435 15.1509C51.0435 14.9174 51.061 14.6781 51.096 14.4329C51.2478 12.2147 51.9191 10.5861 53.1099 9.54702C54.3008 8.49628 55.9995 7.97092 58.206 7.97092C60.2491 7.97092 61.7844 8.53131 62.8117 9.65209C63.8508 10.7729 64.3703 12.3081 64.3703 14.2578V23.837C64.3703 25.4248 64.4988 27.1585 64.7556 29.0382H59.9047C59.6128 27.5088 59.4435 26.5164 59.3968 26.0611C59.1167 27.0067 58.6321 27.8006 57.9433 28.4428C57.2662 29.0732 56.4023 29.3884 55.3515 29.3884Z" fill="#1452A3"/>
<path d="M74.4581 25.7108C74.8667 25.7108 75.1936 25.5649 75.4388 25.273C75.6839 24.9812 75.8474 24.6251 75.9291 24.2048C76.0108 23.7728 76.0517 23.2533 76.0517 22.6462V14.1527C76.04 13.3472 75.9058 12.6876 75.6489 12.1739C75.4038 11.6952 75.0126 11.4559 74.4756 11.4559C74.4406 11.4559 74.4056 11.4559 74.3705 11.4559C73.8685 11.4675 73.2848 11.7127 72.6193 12.1914V25.1329C73.2264 25.5065 73.8393 25.6992 74.4581 25.7108ZM67.208 35.8679V8.30365H72.6193V9.86224C73.9736 8.60136 75.3862 7.97092 76.8573 7.97092C76.8923 7.97092 76.9332 7.97092 76.9799 7.97092C77.8088 7.98259 78.5268 8.19274 79.1339 8.60136C79.7526 8.9983 80.2196 9.52367 80.5348 10.1775C80.8617 10.8313 81.1011 11.5142 81.2528 12.2264C81.4046 12.9386 81.4805 13.6916 81.4805 14.4855V22.4185C81.4805 24.4967 81.0836 26.1778 80.2897 27.4621C79.5075 28.7463 78.3341 29.3884 76.7697 29.3884C75.3921 29.3884 74.0086 28.7521 72.6193 27.4796V35.8679H67.208Z" fill="#1452A3"/>
<path d="M84.1431 29.0382V8.30365H89.5544V16.5694H90.4475L93.7048 8.30365H99.5013L95.3859 18.1631L99.5889 29.0382H93.8449L90.4475 19.7392H89.5544V29.0382H84.1431Z" fill="#1452A3"/>
<path d="M103.372 29.0382V12.0513H99.6596V8.30365H112.549V12.0513H108.801V29.0382H103.372Z" fill="#1452A3"/>
<path d="M114.231 29.0382V8.30365H118.574V19.9668L124.16 8.30365H128.363V29.0382H123.985V17.41L118.504 29.0382H114.231Z" fill="#1452A3"/>
<path d="M136.087 25.5883H141.778V11.701H139.887L139.606 14.9583C139.548 17.0831 139.344 18.8869 138.994 20.3696C138.643 21.8523 138.241 22.9614 137.785 23.6969C137.33 24.4208 136.764 25.0512 136.087 25.5883ZM130.36 34.6071V25.6758C131.411 25.0804 132.286 24.3099 132.987 23.3642C133.687 22.4069 134.248 21.1343 134.668 19.5465C135.088 17.9471 135.339 16.009 135.421 13.7325L135.841 8.30365H146.787V25.5883H149.694V34.6071H145.806L145.421 29.0382H134.633L134.283 34.6071H130.36Z" fill="#1452A3"/>
<path d="M157.61 25.4657C157.925 25.4657 158.246 25.3489 158.573 25.1154C158.912 24.8819 159.18 24.6251 159.379 24.3449V18.6709C158.41 19.1729 157.598 19.8326 156.944 20.6498C156.302 21.4554 155.981 22.2959 155.981 23.1716C155.981 23.8721 156.127 24.4324 156.419 24.8527C156.711 25.2614 157.108 25.4657 157.61 25.4657ZM155.596 29.3884C154.662 29.3767 153.827 29.1199 153.092 28.6179C152.368 28.1159 151.825 27.4913 151.463 26.7441C151.113 25.9969 150.938 25.2088 150.938 24.3799C150.938 23.8429 150.99 23.3292 151.095 22.8388C151.2 22.3485 151.329 21.9107 151.481 21.5254C151.632 21.1401 151.848 20.7724 152.128 20.4221C152.409 20.0602 152.671 19.7508 152.917 19.494C153.162 19.2255 153.483 18.9569 153.88 18.6884C154.288 18.4199 154.639 18.2039 154.93 18.0405C155.222 17.8653 155.602 17.6727 156.069 17.4626C156.536 17.2524 156.903 17.0948 157.172 16.9897C157.452 16.873 157.832 16.7212 158.31 16.5344C158.801 16.3476 159.157 16.2134 159.379 16.1316V14.2228C159.379 13.4756 159.279 12.921 159.081 12.5591C158.894 12.1855 158.526 11.9987 157.978 11.9987C157.055 11.9987 156.571 12.6467 156.524 13.9426L156.419 15.3611L151.288 15.1509C151.288 14.9174 151.305 14.6781 151.34 14.4329C151.492 12.2147 152.163 10.5861 153.354 9.54702C154.545 8.49628 156.244 7.97092 158.45 7.97092C160.493 7.97092 162.029 8.53131 163.056 9.65209C164.095 10.7729 164.615 12.3081 164.615 14.2578V23.837C164.615 25.4248 164.743 27.1585 165 29.0382H160.149C159.857 27.5088 159.688 26.5164 159.641 26.0611C159.361 27.0067 158.877 27.8006 158.188 28.4428C157.511 29.0732 156.647 29.3884 155.596 29.3884Z" fill="#1452A3"/>
</svg>
