<svg width="40" height="41" viewBox="0 0 40 41" fill="none" xmlns="http://www.w3.org/2000/svg">
<path fill-rule="evenodd" clip-rule="evenodd" d="M29.1488 22.8789L39.8105 33.6055L39.8105 33.5662C40.0631 33.8193 40.0631 34.2289 39.8105 34.4816C39.5578 34.7343 39.1477 34.7343 38.895 34.4816L28.6461 24.2327L26.4415 26.4503C24.7338 28.163 22.4147 29.1261 19.9956 29.1261C17.5765 29.1261 15.2574 28.163 13.5497 26.4503C11.8554 24.7323 10.9053 22.4167 10.9053 20.0044C10.9053 17.5916 11.8554 15.276 13.5497 13.5584L15.7929 11.2766L5.58259 1.10452C5.32989 0.851829 5.32989 0.442212 5.58259 0.189519C5.83528 -0.0631731 6.2449 -0.0631731 6.49759 0.189519L17.1593 10.8769C17.2816 10.9979 17.3499 11.1624 17.3499 11.3346C17.3499 11.5064 17.2816 11.671 17.1593 11.7919L14.4907 14.4735C13.0249 15.9514 12.2025 17.9487 12.2025 20.0301C12.2025 22.1114 13.0249 24.1086 14.4907 25.5866C15.9569 27.0591 17.9496 27.8873 20.0279 27.8873C22.1061 27.8873 24.0989 27.0591 25.5647 25.5866L28.2333 22.8789C28.3547 22.7571 28.5193 22.6883 28.691 22.6883C28.8633 22.6883 29.0278 22.7571 29.1488 22.8789ZM9.33499 31.4518C17.3153 39.4063 28.5441 41.6365 34.9127 36.4797L34.8863 36.4801C35.1642 36.2562 35.5711 36.2993 35.7955 36.5768C36.0194 36.8546 35.9762 37.2615 35.6984 37.4859C33.0244 39.579 29.7083 40.6811 26.3132 40.6055C20.3956 40.6055 13.7823 37.7436 8.39345 32.3678C-0.166652 23.8074 -2.52587 11.9472 2.92729 4.77918C3.14446 4.49456 3.55137 4.43971 3.83644 4.65688C4.12106 4.87361 4.17591 5.28052 3.95874 5.56559H3.95919C-0.978749 12.114 1.35491 23.4974 9.33499 31.4518Z" fill="#1452A3"/>
</svg>
